<?xml version="1.0" encoding="UTF-8"?>
<svg width="500" height="500" viewBox="0 0 500 500" xmlns="http://www.w3.org/2000/svg">
<rect width="100%" height="100%" fill="white"/>
<circle cx="250" cy="250" r="200" fill="none" stroke="#e0e0e0" stroke-width="1"/>
<circle cx="250" cy="250" r="166.667" fill="none" stroke="#e0e0e0" stroke-width="1"/>
<circle cx="250" cy="250" r="133.333" fill="none" stroke="#e0e0e0" stroke-width="1"/>
<circle cx="250" cy="250" r="100" fill="none" stroke="#e0e0e0" stroke-width="1"/>
<circle cx="250" cy="250" r="66.6667" fill="none" stroke="#e0e0e0" stroke-width="1"/>
<circle cx="250" cy="250" r="33.3333" fill="none" stroke="#e0e0e0" stroke-width="1"/>
<circle cx="250" cy="250" r="0" fill="none" stroke="#e0e0e0" stroke-width="1"/>
<line x1="250" y1="250" x2="250" y2="50" stroke="#e0e0e0" stroke-width="1"/>
<line x1="250" y1="250" x2="350" y2="76.7949" stroke="#e0e0e0" stroke-width="1"/>
<line x1="250" y1="250" x2="423.205" y2="150" stroke="#e0e0e0" stroke-width="1"/>
<line x1="250" y1="250" x2="450" y2="250" stroke="#e0e0e0" stroke-width="1"/>
<line x1="250" y1="250" x2="423.205" y2="350" stroke="#e0e0e0" stroke-width="1"/>
<line x1="250" y1="250" x2="350" y2="423.205" stroke="#e0e0e0" stroke-width="1"/>
<line x1="250" y1="250" x2="250" y2="450" stroke="#e0e0e0" stroke-width="1"/>
<line x1="250" y1="250" x2="150" y2="423.205" stroke="#e0e0e0" stroke-width="1"/>
<line x1="250" y1="250" x2="76.7949" y2="350" stroke="#e0e0e0" stroke-width="1"/>
<line x1="250" y1="250" x2="50" y2="250" stroke="#e0e0e0" stroke-width="1"/>
<line x1="250" y1="250" x2="76.7949" y2="150" stroke="#e0e0e0" stroke-width="1"/>
<line x1="250" y1="250" x2="150" y2="76.7949" stroke="#e0e0e0" stroke-width="1"/>
<text x="250" y="30" text-anchor="middle">N</text>
<text x="480" y="250" text-anchor="middle">E</text>
<text x="250" y="480" text-anchor="middle">S</text>
<text x="20" y="250" text-anchor="middle">W</text>
<circle cx="344.281" cy="155.719" r="6" fill="#FF4444" stroke="black" stroke-width="0.5"/>
<text x="352.281" y="159.719" font-size="10" fill="black">G12</text>
<circle cx="297.14" cy="297.14" r="6" fill="#44FF44" stroke="black" stroke-width="0.5"/>
<text x="305.14" y="301.14" font-size="10" fill="black">R05</text>
<circle cx="150" cy="250" r="6" fill="#4444FF" stroke="black" stroke-width="0.5"/>
<text x="158" y="254" font-size="10" fill="black">E21</text>
<circle cx="132.149" cy="132.149" r="6" fill="#FFAA00" stroke="black" stroke-width="0.5"/>
<text x="140.149" y="136.149" font-size="10" fill="black">C07</text>
</svg>